<?xml version="1.0" standalone="no"?>
<!DOCTYPE svg PUBLIC "-//W3C//DTD SVG 20010904//EN"
 "http://www.w3.org/TR/2001/REC-SVG-20010904/DTD/svg10.dtd">
<svg version="1.0" xmlns="http://www.w3.org/2000/svg"
 width="700.000000pt" height="700.000000pt" viewBox="0 0 700.000000 700.000000"
 preserveAspectRatio="xMidYMid meet">
<metadata>
Created by potrace 1.14, written by Peter Selinger 2001-2017
</metadata>
<g transform="translate(0.000000,700.000000) scale(0.100000,-0.100000)"
fill="#000000" stroke="none">
<path d="M3405 6994 c-11 -2 -40 -9 -65 -15 -153 -36 -285 -115 -428 -255 -97
-95 -114 -104 -248 -130 -50 -9 -265 -79 -367 -118 -657 -255 -1198 -690
-1594 -1281 -253 -378 -440 -855 -508 -1295 -9 -58 -18 -116 -21 -130 -27
-162 -26 -611 2 -835 12 -100 48 -293 69 -375 2 -8 8 -33 13 -55 109 -437 333
-880 641 -1265 82 -103 355 -382 436 -446 27 -21 56 -45 63 -51 31 -30 244
-183 317 -229 219 -138 463 -255 692 -333 250 -84 568 -153 787 -169 192 -14
577 -7 716 13 14 2 48 6 75 10 28 4 57 8 65 10 8 1 35 6 60 10 60 10 243 52
305 72 379 116 622 227 913 417 327 213 660 529 884 841 202 281 360 588 464
903 38 113 87 289 100 357 2 11 6 31 9 45 2 14 7 41 10 60 3 19 10 60 15 90
28 167 35 271 35 515 0 280 -6 353 -54 627 -70 401 -265 873 -514 1243 -303
450 -740 841 -1218 1089 -127 66 -333 159 -379 172 -8 2 -64 21 -125 42 -60
21 -159 51 -219 66 l-109 28 -96 97 c-133 134 -268 219 -407 256 -57 16 -279
29 -319 19z"/>
</g>
</svg>
